<?xml version="1.0" encoding="utf-8"?><!-- Uploaded to: SVG Repo, www.svgrepo.com, Generator: SVG Repo Mixer Tools -->
<svg version="1.1" id="designs" xmlns="http://www.w3.org/2000/svg" xmlns:xlink="http://www.w3.org/1999/xlink" 
	 width="800px" height="800px" viewBox="0 0 32 32" xml:space="preserve">
<style type="text/css">
	.sketchy_een{fill:#111918;}
</style>
<path class="sketchy_een" d="M7.047,22.798c0.022-0.017,0.044-0.034,0.066-0.051c0.038-0.028,0.075-0.057,0.112-0.086
	C7.166,22.707,7.107,22.752,7.047,22.798z M30.537,24.396c-0.212,0.125-0.471,0.158-0.709,0.093
	c-0.102-0.028-0.185-0.079-0.264-0.135c-0.079,0.001-0.159,0.005-0.237-0.022c-0.24-0.083-0.487-0.137-0.723-0.23
	c-0.283-0.111-0.556-0.242-0.836-0.364c-0.242-0.109-0.495-0.204-0.725-0.337c-0.307-0.176-0.564-0.422-0.818-0.665
	c-0.362-0.347-0.731-0.691-1.075-1.056c-0.194-0.204-0.382-0.412-0.56-0.63c-0.146-0.179-0.279-0.364-0.402-0.556
	c-0.24,0.432-0.499,0.843-0.806,1.233c-0.394,0.505-0.889,0.919-1.414,1.285c-0.414,0.289-0.832,0.57-1.271,0.816
	c-0.871,0.489-1.873,0.79-2.856,0.95c-0.729,0.119-1.467,0.168-2.2,0.052c-0.452-0.071-0.899-0.156-1.343-0.269
	c-0.497-0.129-0.998-0.275-1.451-0.525c-0.404-0.222-0.812-0.45-1.19-0.715c-0.432-0.301-0.804-0.632-1.139-1.038
	c-0.343-0.416-0.63-0.865-0.861-1.35c-0.058-0.121-0.112-0.246-0.169-0.369c-0.271,0.287-0.54,0.577-0.822,0.854
	c-0.483,0.476-1.018,0.911-1.554,1.327c-0.516,0.388-1.074,0.743-1.64,1.047c-0.628,0.337-1.293,0.61-1.949,0.889
	c-0.139,0.081-0.289,0.121-0.45,0.121s-0.309-0.04-0.448-0.121c-0.2-0.117-0.349-0.309-0.41-0.531
	c-0.01-0.036-0.002-0.074-0.008-0.111c-0.062-0.12-0.105-0.248-0.092-0.373c0.055-0.525,0.107-1.05,0.172-1.572
	c0.061-0.5,0.15-0.994,0.223-1.492c0.018-0.17,0.028-0.337,0.017-0.507c-0.033-0.18-0.077-0.357-0.131-0.532
	c-0.09-0.179-0.203-0.346-0.322-0.507c-0.122-0.147-0.249-0.288-0.38-0.427c-0.133-0.139-0.265-0.287-0.372-0.446
	c-0.091-0.137-0.148-0.269-0.212-0.422c-0.115-0.277-0.135-0.602-0.095-0.901c0.032-0.244,0.051-0.503,0.145-0.735
	c0.174-0.432,0.41-0.832,0.624-1.246C1.94,14.587,2.1,14.29,2.24,13.985c0.069-0.194,0.12-0.392,0.158-0.594
	c0.015-0.201,0.006-0.397-0.015-0.597c-0.04-0.267-0.085-0.534-0.126-0.801c-0.028-0.178-0.053-0.356-0.077-0.535
	c-0.034-0.24-0.071-0.485-0.063-0.727c0.004-0.08,0.014-0.159,0.022-0.239c-0.055-0.219-0.031-0.46,0.079-0.649
	c0.067-0.116,0.168-0.204,0.28-0.275c0.036-0.03,0.057-0.074,0.098-0.099c0.134-0.078,0.288-0.118,0.442-0.118
	c0.078,0,0.155,0.01,0.231,0.031c0.2,0.054,0.366,0.186,0.482,0.356c0.508,0.25,1.017,0.498,1.516,0.763
	c0.25,0.131,0.499,0.259,0.731,0.42c0.297,0.204,0.584,0.422,0.865,0.65c0.234,0.188,0.459,0.388,0.687,0.584
	c0.21,0.184,0.424,0.364,0.62,0.566c0.091,0.095,0.173,0.197,0.259,0.296c0-0.002,0.001-0.004,0.001-0.005
	c0.049-0.208,0.117-0.408,0.194-0.608c0.174-0.459,0.39-0.905,0.64-1.329c0.257-0.44,0.584-0.85,0.921-1.232
	c0.327-0.37,0.695-0.695,1.081-1c0.234-0.186,0.473-0.372,0.727-0.531c0.335-0.208,0.699-0.362,1.065-0.505
	c0.43-0.164,0.863-0.327,1.313-0.428c0.495-0.113,1.008-0.174,1.515-0.22c0.321-0.03,0.648-0.059,0.974-0.059
	c0.128,0,0.256,0.004,0.384,0.015c0.505,0.042,1.026,0.099,1.513,0.245c0.509,0.154,0.996,0.352,1.475,0.582
	c0.422,0.204,0.85,0.402,1.267,0.614c0.257,0.131,0.505,0.317,0.727,0.499c0.346,0.287,0.638,0.606,0.895,0.978
	c0.263,0.38,0.467,0.79,0.673,1.204c0.23,0.465,0.45,0.939,0.61,1.434c0.102,0.307,0.178,0.624,0.249,0.942
	c0.138-0.146,0.273-0.295,0.42-0.431c0.448-0.414,0.923-0.796,1.41-1.162c0.453-0.341,0.935-0.636,1.432-0.907
	c0.287-0.154,0.584-0.289,0.885-0.416c0.273-0.113,0.545-0.224,0.832-0.307c0.07-0.02,0.142-0.03,0.212-0.03
	c0.358,0,0.696,0.246,0.796,0.602c0.048,0.176,0.021,0.35-0.042,0.508c0.065,0.159,0.093,0.333,0.044,0.508
	c-0.117,0.412-0.236,0.824-0.36,1.232c-0.102,0.333-0.215,0.657-0.277,0.998c-0.013,0.145-0.014,0.289-0.006,0.433
	c0.038,0.169,0.095,0.33,0.159,0.49c0.13,0.297,0.258,0.596,0.383,0.895c0.012,0.029,0.024,0.057,0.036,0.086
	c0.009,0.021,0.018,0.043,0.027,0.064c-0.003-0.006-0.005-0.011-0.007-0.017c0.247,0.597,0.47,1.228,0.348,1.885
	c-0.065,0.353-0.224,0.695-0.418,0.996c-0.089,0.141-0.178,0.278-0.253,0.424c-0.04,0.118-0.068,0.239-0.09,0.362
	c-0.035,0.423-0.008,0.85,0.042,1.271c0.101,0.628,0.285,1.233,0.515,1.824c0.037,0.074,0.079,0.143,0.126,0.212
	C31.154,23.549,30.944,24.157,30.537,24.396z M23.404,16.852c-0.017-0.463-0.056-0.923-0.109-1.382
	c-0.13-0.867-0.322-1.737-0.636-2.555c-0.154-0.341-0.322-0.675-0.501-1.006c-0.173-0.316-0.346-0.625-0.555-0.92
	c-0.13-0.157-0.269-0.301-0.425-0.436c-0.334-0.238-0.68-0.43-1.058-0.595c-0.386-0.171-0.762-0.365-1.146-0.541
	c-0.46-0.175-0.923-0.302-1.406-0.386c-0.786-0.081-1.571-0.03-2.354,0.065c-0.662,0.11-1.294,0.305-1.92,0.542
	c-0.311,0.149-0.59,0.331-0.871,0.533c-0.218,0.172-0.435,0.35-0.63,0.548c-0.221,0.224-0.427,0.454-0.626,0.698
	c-0.175,0.236-0.343,0.476-0.483,0.734c-0.134,0.243-0.255,0.49-0.367,0.742c-0.104,0.274-0.182,0.546-0.237,0.832
	c-0.031,0.327-0.047,0.655-0.058,0.984c-0.016,0.41,0.022,0.824,0.042,1.232c0.024,0.487-0.426,0.895-0.895,0.895
	c-0.505,0-0.873-0.408-0.895-0.895c-0.012-0.251-0.017-0.503-0.022-0.755c-0.07-0.059-0.132-0.129-0.191-0.209
	c-0.019-0.027-0.039-0.053-0.058-0.079c-0.333-0.419-0.683-0.825-1.073-1.19c-0.204-0.192-0.426-0.366-0.64-0.547
	C6.099,13,5.906,12.841,5.71,12.683c-0.219-0.164-0.44-0.324-0.673-0.467c-0.25-0.152-0.517-0.275-0.778-0.404
	c-0.105-0.052-0.211-0.099-0.317-0.15c0.051,0.306,0.107,0.611,0.153,0.919c0.026,0.18,0.059,0.364,0.061,0.547
	c0.004,0.241-0.024,0.487-0.069,0.723c-0.04,0.208-0.081,0.414-0.153,0.612c-0.158,0.44-0.4,0.853-0.63,1.257
	c-0.178,0.314-0.376,0.624-0.536,0.949c-0.038,0.107-0.066,0.216-0.089,0.328c-0.004,0.061-0.007,0.121-0.006,0.182
	c0.002,0.006,0.003,0.012,0.005,0.018c0.014,0.026,0.029,0.051,0.044,0.076c0.265,0.307,0.564,0.58,0.805,0.91
	c0.103,0.141,0.204,0.281,0.293,0.43c0.154,0.251,0.253,0.529,0.327,0.812c0.063,0.241,0.101,0.493,0.117,0.743
	c0.018,0.285-0.04,0.588-0.087,0.869c-0.059,0.344-0.126,0.687-0.176,1.033c-0.024,0.18-0.047,0.361-0.069,0.541
	c0.099-0.041,0.198-0.08,0.297-0.121c0.628-0.295,1.218-0.665,1.775-1.079c0.485-0.394,0.964-0.805,1.415-1.237
	c0.23-0.22,0.465-0.432,0.685-0.657c0.255-0.263,0.501-0.539,0.766-0.79c0.003-0.003,0.007-0.004,0.01-0.006
	c-0.033-0.148-0.067-0.295-0.099-0.443c-0.103-0.473,0.137-0.96,0.622-1.095c0.465-0.129,0.972,0.153,1.095,0.622
	c0.113,0.421,0.232,0.838,0.39,1.245c0.273,0.61,0.588,1.202,0.982,1.742c0.199,0.235,0.413,0.448,0.642,0.653
	c0.491,0.357,1.03,0.662,1.569,0.934c0.662,0.26,1.368,0.443,2.069,0.553c0.531,0.05,1.062,0.019,1.592-0.038
	c0.627-0.101,1.234-0.26,1.831-0.477c0.664-0.307,1.282-0.691,1.877-1.117c0.116-0.093,0.232-0.186,0.34-0.288
	c0.162-0.151,0.307-0.314,0.448-0.483c0.332-0.457,0.622-0.938,0.857-1.452c0.123-0.326,0.196-0.656,0.252-0.998
	C23.388,17.672,23.419,17.261,23.404,16.852z M28.667,22.354c-0.109-0.465-0.177-0.935-0.216-1.411
	c-0.048-0.58-0.03-1.16,0.107-1.729c0.065-0.277,0.174-0.556,0.325-0.8c0.104-0.169,0.211-0.333,0.3-0.51
	c0.019-0.056,0.034-0.112,0.047-0.169c0-0.055-0.002-0.109-0.006-0.163c-0.211-1.07-0.963-1.997-0.909-3.121
	c0.014-0.263,0.048-0.535,0.119-0.788c0.063-0.228,0.162-0.443,0.24-0.667c0.061-0.176,0.113-0.356,0.165-0.535
	c-0.284,0.142-0.565,0.291-0.832,0.461c-0.388,0.25-0.762,0.518-1.131,0.797c-0.347,0.275-0.673,0.572-0.972,0.898
	c-0.326,0.355-0.627,0.73-0.926,1.107c0.076,0.892,0.084,1.784-0.054,2.671c-0.017,0.112-0.04,0.223-0.06,0.334
	c0.145,0.068,0.287,0.167,0.349,0.306c0.121,0.265,0.244,0.531,0.412,0.77c0.052,0.073,0.104,0.145,0.155,0.217
	c0.282,0.349,0.587,0.684,0.917,0.989c0.32,0.293,0.636,0.591,0.967,0.871c0.174,0.117,0.36,0.208,0.552,0.292
	C28.365,22.235,28.516,22.295,28.667,22.354z M21.429,15.994c-0.069,0-0.139,0.01-0.211,0.029c-0.198,0.055-0.37,0.188-0.473,0.364
	c-0.099,0.17-0.152,0.422-0.081,0.612c0.006,0.013,0.012,0.026,0.016,0.04c0.002,0.091-0.003,0.182-0.012,0.273
	c-0.034,0.197-0.078,0.387-0.145,0.574c-0.085,0.178-0.184,0.344-0.299,0.506c-0.275,0.336-0.579,0.645-0.915,0.921
	c-0.166,0.116-0.34,0.214-0.525,0.298c-0.183,0.073-0.368,0.14-0.551,0.213c-0.194,0.078-0.383,0.159-0.586,0.206
	c-0.386,0.025-0.771-0.033-1.155-0.075c-0.206-0.022-0.442,0.101-0.582,0.24c-0.152,0.154-0.24,0.364-0.24,0.582
	c0,0.216,0.087,0.428,0.24,0.58c0.166,0.166,0.356,0.218,0.582,0.242c0.376,0.038,0.755,0.083,1.131,0.047
	c0.224-0.02,0.453-0.05,0.663-0.133c0.177-0.069,0.35-0.144,0.524-0.219c0.419-0.173,0.848-0.332,1.234-0.573
	c0.246-0.152,0.463-0.352,0.675-0.546c0.168-0.153,0.329-0.311,0.473-0.485c0.18-0.214,0.354-0.436,0.511-0.669
	c0.151-0.228,0.261-0.489,0.354-0.747c0.071-0.198,0.109-0.402,0.137-0.612c0.049-0.351,0.117-0.741,0-1.083
	C22.077,16.236,21.779,15.994,21.429,15.994z"/>
</svg>